<svg xmlns="http://www.w3.org/2000/svg" xmlns:xlink="http://www.w3.org/1999/xlink" width="50" zoomAndPan="magnify" viewBox="0 0 37.5 30.000001" height="40" preserveAspectRatio="xMidYMid meet" version="1.0"><defs><g/><clipPath id="0179d230a0"><path d="M 7.960938 2.941406 L 29.726562 2.941406 L 29.726562 24.707031 L 7.960938 24.707031 Z M 7.960938 2.941406 " clip-rule="nonzero"/></clipPath></defs><g clip-path="url(#0179d230a0)"><path fill="#255751" d="M 7.960938 2.941406 L 29.726562 2.941406 L 29.726562 24.707031 L 7.960938 24.707031 Z M 7.960938 2.941406 " fill-opacity="1" fill-rule="nonzero"/></g><g fill="#ffffff" fill-opacity="1"><g transform="translate(10.681067, 12.509523)"><g><path d="M 1.117188 0 L 4.46875 0 L 4.46875 -3.351562 L 3.726562 -3.351562 L 3.726562 -0.746094 L 1.117188 -0.746094 L 1.117188 -5.214844 L 4.46875 -5.214844 L 4.46875 -5.960938 L 1.117188 -5.960938 C 0.625 -5.960938 0.371094 -5.714844 0.371094 -5.214844 L 0.371094 -0.746094 C 0.371094 -0.253906 0.625 0 1.117188 0 Z M 1.117188 0 "/></g></g></g><g fill="#ffffff" fill-opacity="1"><g transform="translate(16.425087, 12.509523)"><g><path d="M 0.371094 -5.214844 L 0.371094 0 L 1.117188 0 L 1.117188 -5.214844 L 3.726562 -5.214844 L 3.726562 0 L 4.46875 0 L 4.46875 -5.214844 C 4.46875 -5.714844 4.226562 -5.960938 3.726562 -5.960938 L 1.117188 -5.960938 C 0.625 -5.960938 0.371094 -5.714844 0.371094 -5.214844 Z M 1.863281 -1.488281 L 2.980469 -1.488281 L 2.980469 -2.234375 L 1.863281 -2.234375 Z M 1.863281 -1.488281 "/></g></g></g><g fill="#ffffff" fill-opacity="1"><g transform="translate(22.169108, 12.509523)"><g><path d="M 1.117188 0 L 3.726562 0 C 4.226562 0 4.46875 -0.253906 4.46875 -0.746094 L 4.46875 -5.960938 L 3.726562 -5.960938 L 3.726562 -0.746094 L 1.117188 -0.746094 L 1.117188 -5.960938 L 0.371094 -5.960938 L 0.371094 -0.746094 C 0.371094 -0.253906 0.625 0 1.117188 0 Z M 1.117188 0 "/></g></g></g><g fill="#ffffff" fill-opacity="1"><g transform="translate(13.552003, 20.76387)"><g><path d="M 1.117188 -4.46875 L 0.371094 -4.46875 L 0.371094 0 L 3.726562 0 C 4.226562 0 4.46875 -0.253906 4.46875 -0.746094 L 4.46875 -5.214844 C 4.46875 -5.714844 4.226562 -5.960938 3.726562 -5.960938 L 0.371094 -5.960938 L 0.371094 -5.214844 L 3.726562 -5.214844 L 3.726562 -0.746094 L 1.117188 -0.746094 Z M 1.117188 -4.46875 "/></g></g></g><g fill="#ffffff" fill-opacity="1"><g transform="translate(19.296023, 20.76387)"><g><path d="M 1.117188 -2.609375 L 3.726562 -2.609375 L 3.726562 0 L 4.46875 0 L 4.46875 -2.609375 C 4.46875 -3.105469 4.226562 -3.351562 3.726562 -3.351562 L 1.117188 -3.351562 L 1.117188 -5.960938 L 0.371094 -5.960938 L 0.371094 -3.351562 C 0.371094 -2.859375 0.625 -2.609375 1.117188 -2.609375 Z M 3.726562 -4.097656 L 4.46875 -4.097656 L 4.46875 -5.960938 L 3.726562 -5.960938 Z M 3.726562 -4.097656 "/></g></g></g><g fill="#000000" fill-opacity="1"><g transform="translate(7.626267, 28.736672)"><g><path d="M 0.453125 0 L 0.171875 -0.28125 L 0.171875 -1.453125 L 0.453125 -1.734375 L 1.21875 -1.734375 L 1.21875 -1.546875 L 0.546875 -1.546875 L 0.390625 -1.375 L 0.390625 -0.359375 L 0.546875 -0.203125 L 1.21875 -0.203125 L 1.21875 0 Z M 0.453125 0 "/></g></g></g><g fill="#000000" fill-opacity="1"><g transform="translate(9.165409, 28.736672)"><g><path d="M 0.203125 0 L 0.203125 -1.734375 L 0.421875 -1.734375 L 0.421875 -0.203125 L 1.15625 -0.203125 L 1.15625 0 Z M 0.203125 0 "/></g></g></g><g fill="#000000" fill-opacity="1"><g transform="translate(10.585393, 28.736672)"><g><path d="M 0.453125 0 L 0.171875 -0.28125 L 0.171875 -1.453125 L 0.453125 -1.734375 L 1.140625 -1.734375 L 1.421875 -1.453125 L 1.421875 -0.28125 L 1.140625 0 Z M 0.546875 -0.203125 L 1.03125 -0.203125 L 1.1875 -0.359375 L 1.1875 -1.375 L 1.03125 -1.546875 L 0.546875 -1.546875 L 0.390625 -1.375 L 0.390625 -0.359375 Z M 0.546875 -0.203125 "/></g></g></g><g fill="#000000" fill-opacity="1"><g transform="translate(12.410022, 28.736672)"><g><path d="M 0.5 0 L 0.5 -1.546875 L 0.015625 -1.546875 L 0.015625 -1.734375 L 1.21875 -1.734375 L 1.21875 -1.546875 L 0.734375 -1.546875 L 0.734375 0 Z M 0.5 0 "/></g></g></g><g fill="#000000" fill-opacity="1"><g transform="translate(13.882138, 28.736672)"><g><path d="M 0.203125 0 L 0.203125 -1.734375 L 0.421875 -1.734375 L 0.421875 -0.96875 L 1.15625 -0.96875 L 1.15625 -1.734375 L 1.375 -1.734375 L 1.375 0 L 1.15625 0 L 1.15625 -0.78125 L 0.421875 -0.78125 L 0.421875 0 Z M 0.203125 0 "/></g></g></g><g fill="#000000" fill-opacity="1"><g transform="translate(15.694355, 28.736672)"><g><path d="M 0.125 0 L 0.125 -0.1875 L 0.375 -0.1875 L 0.375 -1.546875 L 0.125 -1.546875 L 0.125 -1.734375 L 0.859375 -1.734375 L 0.859375 -1.546875 L 0.59375 -1.546875 L 0.59375 -0.1875 L 0.859375 -0.1875 L 0.859375 0 Z M 0.125 0 "/></g></g></g><g fill="#000000" fill-opacity="1"><g transform="translate(16.905809, 28.736672)"><g><path d="M 0.203125 0 L 0.203125 -1.734375 L 0.59375 -1.734375 L 1.171875 -0.21875 L 1.203125 -0.21875 L 1.203125 -1.734375 L 1.421875 -1.734375 L 1.421875 0 L 1.03125 0 L 0.453125 -1.515625 L 0.40625 -1.515625 L 0.40625 0 Z M 0.203125 0 "/></g></g></g><g fill="#000000" fill-opacity="1"><g transform="translate(18.760228, 28.736672)"><g><path d="M 0.453125 0 L 0.171875 -0.28125 L 0.171875 -1.453125 L 0.453125 -1.734375 L 1.296875 -1.734375 L 1.296875 -1.546875 L 0.546875 -1.546875 L 0.390625 -1.375 L 0.390625 -0.359375 L 0.546875 -0.203125 L 1.03125 -0.203125 L 1.1875 -0.359375 L 1.1875 -0.796875 L 0.75 -0.796875 L 0.75 -0.984375 L 1.40625 -0.984375 L 1.40625 -0.28125 L 1.140625 0 Z M 0.453125 0 "/></g></g></g><g fill="#000000" fill-opacity="1"><g transform="translate(20.540172, 28.736672)"><g/></g></g><g fill="#000000" fill-opacity="1"><g transform="translate(21.438832, 28.736672)"><g><path d="M 0.203125 0 L 0.203125 -1.734375 L 1.09375 -1.734375 L 1.328125 -1.5 L 1.328125 -1.078125 L 1.1875 -0.921875 L 1.390625 -0.71875 L 1.390625 -0.265625 L 1.125 0 Z M 0.421875 -1 L 0.96875 -1 L 1.09375 -1.125 L 1.09375 -1.421875 L 0.984375 -1.546875 L 0.421875 -1.546875 Z M 0.421875 -0.203125 L 1.015625 -0.203125 L 1.15625 -0.34375 L 1.15625 -0.65625 L 1.015625 -0.796875 L 0.421875 -0.796875 Z M 0.421875 -0.203125 "/></g></g></g><g fill="#000000" fill-opacity="1"><g transform="translate(23.201398, 28.736672)"><g><path d="M 0.203125 0 L 0.203125 -1.734375 L 1.0625 -1.734375 L 1.328125 -1.46875 L 1.328125 -0.890625 L 1.078125 -0.65625 L 1.375 -0.09375 L 1.375 0 L 1.15625 0 L 0.84375 -0.625 L 0.421875 -0.625 L 0.421875 0 Z M 0.421875 -0.828125 L 0.953125 -0.828125 L 1.09375 -0.96875 L 1.09375 -1.390625 L 0.953125 -1.546875 L 0.421875 -1.546875 Z M 0.421875 -0.828125 "/></g></g></g><g fill="#000000" fill-opacity="1"><g transform="translate(24.941622, 28.736672)"><g><path d="M 0.921875 -1.734375 L 1.40625 -0.09375 L 1.40625 0 L 1.203125 0 L 1.0625 -0.46875 L 0.40625 -0.46875 L 0.265625 0 L 0.0625 0 L 0.0625 -0.09375 L 0.5625 -1.734375 Z M 0.46875 -0.671875 L 1 -0.671875 L 0.75 -1.53125 L 0.71875 -1.53125 Z M 0.46875 -0.671875 "/></g></g></g><g fill="#000000" fill-opacity="1"><g transform="translate(26.654539, 28.736672)"><g><path d="M 0.203125 0 L 0.203125 -1.734375 L 0.59375 -1.734375 L 1.171875 -0.21875 L 1.203125 -0.21875 L 1.203125 -1.734375 L 1.421875 -1.734375 L 1.421875 0 L 1.03125 0 L 0.453125 -1.515625 L 0.40625 -1.515625 L 0.40625 0 Z M 0.203125 0 "/></g></g></g><g fill="#000000" fill-opacity="1"><g transform="translate(28.508958, 28.736672)"><g><path d="M 0.203125 0 L 0.203125 -1.734375 L 1.109375 -1.734375 L 1.390625 -1.453125 L 1.390625 -0.28125 L 1.109375 0 Z M 0.421875 -0.203125 L 1 -0.203125 L 1.15625 -0.359375 L 1.15625 -1.375 L 1 -1.546875 L 0.421875 -1.546875 Z M 0.421875 -0.203125 "/></g></g></g></svg>