<svg xmlns="http://www.w3.org/2000/svg" xmlns:xlink="http://www.w3.org/1999/xlink" width="500" zoomAndPan="magnify" viewBox="0 0 375 374.999991" height="500" preserveAspectRatio="xMidYMid meet" version="1.0"><defs><g/></defs><g fill="#191919" fill-opacity="1"><g transform="translate(13.58844, 220.523609)"><g><path d="M 42.851562 1.085938 C 62.207031 1.085938 75.910156 -7.722656 75.910156 -15.769531 L 75.910156 -22.078125 C 75.910156 -32.082031 80.261719 -30.558594 80.152344 -35.019531 C 80.152344 -37.628906 78.414062 -38.5 74.605469 -38.5 L 53.289062 -38.28125 C 48.503906 -38.171875 46.980469 -37.304688 46.980469 -34.691406 C 47.089844 -29.253906 57.859375 -32.625 57.859375 -21.859375 L 57.859375 -14.898438 C 57.859375 -9.898438 51.332031 -7.832031 46.980469 -7.832031 C 31.539062 -7.832031 22.730469 -23.273438 22.730469 -44.480469 C 22.730469 -58.511719 29.472656 -69.386719 42.304688 -69.386719 C 52.964844 -69.277344 57.859375 -62.75 62.96875 -55.574219 C 65.472656 -51.875 66.667969 -50.136719 69.167969 -50.355469 C 72.105469 -50.570312 72.867188 -52.421875 72.429688 -55.792969 C 71.5625 -62.425781 70.691406 -67.210938 69.820312 -71.453125 C 68.84375 -76.128906 67.101562 -77.109375 65.144531 -77.109375 C 62.207031 -77.109375 61.664062 -75.257812 58.835938 -75.257812 C 56.445312 -75.257812 51.875 -77.214844 43.066406 -77.214844 C 20.988281 -77.214844 4.351562 -58.945312 4.351562 -36.652344 C 4.351562 -13.921875 20.226562 1.085938 42.851562 1.085938 Z M 42.851562 1.085938 "/></g></g></g><g fill="#191919" fill-opacity="1"><g transform="translate(96.780017, 220.523609)"><g><path d="M 61.882812 -9.136719 C 59.273438 -9.027344 58.074219 -11.203125 56.988281 -15.007812 L 51.441406 -33.933594 C 48.832031 -42.742188 45.023438 -53.289062 30.125 -53.289062 C 19.46875 -53.289062 10.984375 -47.417969 8.15625 -42.523438 C 6.417969 -39.476562 9.027344 -37.847656 11.09375 -39.152344 C 14.683594 -41.109375 19.359375 -43.175781 23.601562 -43.175781 C 30.996094 -43.175781 33.605469 -38.171875 35.453125 -32.300781 C 31.972656 -32.625 30.234375 -32.84375 28.277344 -32.84375 C 11.746094 -32.84375 2.71875 -25.121094 2.71875 -14.789062 C 2.71875 -5.765625 10.65625 0.871094 22.1875 0.871094 C 28.710938 0.871094 35.996094 -1.304688 41.542969 -6.960938 C 43.503906 -1.414062 46.980469 0.871094 51.660156 0.871094 C 56.988281 0.871094 63.839844 -2.9375 63.839844 -7.070312 C 63.839844 -8.375 63.078125 -9.246094 61.882812 -9.136719 Z M 29.691406 -7.722656 C 23.164062 -7.722656 18.816406 -11.964844 18.816406 -17.726562 C 18.816406 -23.054688 23.054688 -26.644531 29.90625 -26.644531 C 33.496094 -26.644531 36.214844 -25.558594 37.085938 -23.054688 C 38.171875 -19.792969 39.152344 -17.074219 39.371094 -15.550781 C 40.238281 -11.3125 35.128906 -7.722656 29.691406 -7.722656 Z M 29.691406 -7.722656 "/></g></g></g><g fill="#191919" fill-opacity="1"><g transform="translate(158.548362, 220.523609)"><g><path d="M 59.816406 -49.59375 C 59.816406 -51.984375 59.054688 -53.289062 57.097656 -53.289062 C 55.355469 -53.289062 45.460938 -50.027344 41 -47.960938 C 38.390625 -46.765625 37.519531 -45.894531 37.519531 -44.261719 C 37.519531 -41 42.632812 -41.21875 42.632812 -34.691406 L 42.632812 -24.144531 C 42.632812 -15.660156 37.847656 -9.789062 32.625 -9.679688 C 26.972656 -9.679688 25.230469 -14.136719 25.230469 -21.640625 L 25.230469 -34.691406 L 25.339844 -49.59375 C 25.339844 -51.984375 24.578125 -53.289062 22.621094 -53.289062 C 20.773438 -53.289062 10.984375 -50.027344 6.523438 -47.960938 C 3.914062 -46.765625 3.046875 -45.894531 3.046875 -44.261719 C 3.046875 -41 8.046875 -41.21875 8.046875 -34.691406 L 8.15625 -20.988281 C 8.15625 -7.722656 14.246094 0.980469 26.425781 0.980469 C 32.300781 0.980469 38.933594 -2.175781 43.175781 -7.832031 L 43.285156 -5.765625 C 43.609375 -0.761719 45.023438 0.980469 48.289062 0.980469 C 51.550781 0.980469 58.621094 -1.414062 62.097656 -3.152344 C 64.710938 -4.675781 66.015625 -5.871094 66.015625 -7.613281 C 66.015625 -10.765625 59.707031 -9.351562 59.707031 -17.183594 L 59.707031 -34.691406 Z M 59.816406 -49.59375 "/></g></g></g><g fill="#191919" fill-opacity="1"><g transform="translate(224.992843, 220.523609)"><g><path d="M 58.292969 -73.519531 C 58.292969 -75.910156 57.53125 -77.214844 55.574219 -77.214844 C 53.726562 -77.214844 43.828125 -73.953125 39.476562 -71.886719 C 36.867188 -70.691406 35.890625 -69.820312 35.890625 -68.191406 C 35.890625 -64.925781 41 -65.035156 41 -58.621094 L 41 -51.332031 C 38.390625 -52.527344 35.128906 -53.289062 31.210938 -53.289062 C 19.140625 -53.289062 3.480469 -42.523438 3.480469 -22.730469 C 3.480469 -8.589844 12.507812 0.652344 24.46875 0.980469 C 32.734375 1.304688 38.0625 -2.285156 41.542969 -6.960938 L 41.542969 -5.980469 C 41.871094 -0.980469 43.285156 0.761719 46.546875 0.761719 C 49.808594 0.761719 56.878906 -1.632812 60.359375 -3.371094 C 63.078125 -4.894531 64.273438 -5.980469 64.273438 -7.722656 C 64.273438 -10.984375 57.964844 -9.570312 57.964844 -17.402344 L 58.183594 -58.621094 Z M 32.191406 -9.679688 C 25.015625 -9.679688 19.683594 -17.945312 19.683594 -30.125 C 19.683594 -39.804688 23.382812 -45.675781 29.800781 -45.675781 C 33.824219 -45.675781 37.195312 -43.394531 39.152344 -38.71875 C 40.128906 -36.324219 40.785156 -32.410156 41 -27.839844 L 41 -20.773438 C 40.457031 -14.246094 37.628906 -9.679688 32.191406 -9.679688 Z M 32.191406 -9.679688 "/></g></g></g><g fill="#191919" fill-opacity="1"><g transform="translate(288.936135, 220.523609)"><g><path d="M 49.917969 -52.203125 C 46.875 -52.203125 44.914062 -51.660156 44.914062 -49.15625 C 44.914062 -44.371094 50.898438 -46.4375 47.417969 -37.410156 L 38.824219 -14.246094 L 29.800781 -37.410156 C 26.320312 -46.4375 32.410156 -44.371094 32.410156 -49.15625 C 32.410156 -51.441406 30.453125 -52.203125 27.082031 -52.203125 L 8.375 -52.203125 C 5.328125 -52.203125 3.371094 -51.660156 3.371094 -49.15625 C 3.371094 -44.371094 8.15625 -46.4375 11.636719 -37.410156 L 26.320312 -0.652344 C 27.1875 1.738281 27.734375 3.914062 27.734375 5.980469 C 27.734375 10.875 25.121094 14.574219 21.859375 14.574219 C 15.550781 14.574219 16.75 3.152344 9.460938 3.152344 C 4.457031 3.152344 1.738281 7.394531 1.738281 11.636719 C 1.738281 19.25 9.351562 22.839844 16.097656 22.839844 C 30.34375 22.839844 35.671875 13.269531 41.871094 -2.609375 L 55.355469 -37.410156 C 58.835938 -46.4375 63.621094 -44.371094 63.621094 -49.15625 C 63.621094 -51.441406 61.664062 -52.203125 58.292969 -52.203125 Z M 49.917969 -52.203125 "/></g></g></g></svg>