<svg xmlns="http://www.w3.org/2000/svg" xmlns:xlink="http://www.w3.org/1999/xlink" width="200" zoomAndPan="magnify" viewBox="0 0 150 60" height="80" preserveAspectRatio="xMidYMid meet" version="1.0"><defs><g/></defs><g fill="#000000" fill-opacity="1"><g transform="translate(1.878888, 34.152553)"><g><path d="M 7.230469 -14.460938 C 5.453125 -14.460938 3.820312 -13.820312 2.5625 -12.765625 C 0.992188 -11.421875 0 -9.441406 0 -7.230469 C 0 -2.539062 3.820312 0 7.230469 0 C 10.515625 0 14.460938 -1.859375 14.460938 -5.617188 C 14.460938 -7.765625 12.765625 -9.480469 9.296875 -8.386719 C 7.828125 -7.910156 5.226562 -6.175781 3.945312 -6.652344 L 4.710938 -5.433594 C 5.226562 -4.628906 5.496094 -4.503906 6.28125 -4.75 C 7.4375 -5.101562 9.253906 -6.195312 10.742188 -6.960938 C 13.738281 -8.488281 15.367188 -6.402344 13.21875 -3.78125 C 12.496094 -2.890625 11.527344 -2.273438 10.410156 -1.941406 C 7.148438 -1.011719 3.492188 -2.828125 2.105469 -5.929688 C 1.425781 -7.457031 1.21875 -9.234375 1.550781 -10.824219 C 1.816406 -12.125 2.871094 -12.992188 5.183594 -12.765625 C 7.375 -12.558594 10.574219 -11.917969 12.351562 -11.917969 C 13.386719 -11.9375 13.695312 -12.144531 13.984375 -13.054688 L 14.460938 -14.460938 C 13.074219 -13.613281 9.210938 -14.460938 7.230469 -14.460938 Z M 7.230469 -14.460938 "/></g></g></g><g fill="#000000" fill-opacity="1"><g transform="translate(18.197312, 34.152553)"><g><path d="M 8.59375 -14.460938 L 6.113281 -14.460938 C 6.074219 -13.179688 4.234375 -10.265625 3.492188 -9.109375 C 2.230469 -7.167969 -0.535156 -3.757812 0.453125 -1.320312 C 0.804688 -0.476562 1.550781 0 2.644531 0 C 4.6875 0 6.464844 -2.871094 7.992188 -4.191406 C 8.675781 -4.792969 9.460938 -5.246094 10.082031 -5.101562 C 9.75 -5.410156 9.089844 -6.175781 8.695312 -6.339844 C 8.035156 -6.652344 7.332031 -6.28125 6.816406 -5.722656 C 5.847656 -4.667969 4.132812 -2.644531 2.933594 -2.046875 C 1.445312 -1.320312 0.621094 -2.480469 1.734375 -5.121094 C 2.871094 -7.808594 5.742188 -11.382812 6.300781 -14.128906 C 6.691406 -13.507812 7.125 -12.433594 7.375 -11.835938 L 12.3125 0 L 14.808594 0 C 14.726562 -0.125 14.191406 -1.054688 13.777344 -2.023438 Z M 8.59375 -14.460938 "/></g></g><g transform="translate(34.866898, 34.152553)"><g><path d="M 2.519531 -14.460938 L 0 -14.460938 C 0 -14.460938 0.207031 -13.40625 0.207031 -12.1875 L 0.207031 -4.523438 C 0.207031 -3.097656 0.207031 -1.839844 1.570312 -0.847656 C 2.375 -0.246094 3.492188 0 4.667969 0 C 5.617188 0 7.355469 -0.308594 9.191406 -1.261719 C 9.128906 -0.515625 9.027344 0 9.027344 0 L 11.566406 0 C 11.566406 0 11.359375 -1.054688 11.359375 -2.273438 L 11.359375 -12.1875 C 11.359375 -13.40625 11.566406 -14.460938 11.566406 -14.460938 L 9.027344 -14.460938 C 9.027344 -14.460938 9.234375 -13.40625 9.234375 -12.1875 L 9.234375 -2.273438 C 9.234375 -2.210938 9.234375 -2.148438 9.234375 -2.085938 C 7.890625 -1.03125 6.050781 -0.269531 4.6875 -0.269531 C 2.023438 -0.269531 2.3125 -2.601562 2.3125 -4.523438 L 2.3125 -12.1875 C 2.3125 -13.40625 2.519531 -14.460938 2.519531 -14.460938 Z M 2.519531 -14.460938 "/></g></g></g><g fill="#000000" fill-opacity="1"><g transform="translate(48.252138, 34.152553)"><g><path d="M 2.3125 -0.289062 C 2.3125 -4.917969 2.335938 -9.542969 2.335938 -14.171875 L 5.328125 -14.171875 C 7.644531 -14.171875 10.71875 -12.664062 10.71875 -7.230469 C 10.71875 -3.78125 9.234375 -0.289062 5.328125 -0.289062 Z M 0 0 L 7.023438 0 C 10.90625 0 12.847656 -3.882812 12.847656 -7.230469 C 12.847656 -12.664062 9.296875 -14.460938 7.023438 -14.460938 L 0 -14.460938 C 0 -14.460938 0.207031 -13.40625 0.207031 -12.1875 L 0.207031 -2.273438 C 0.207031 -1.054688 0 0 0 0 Z M 0 0 "/></g></g></g><g fill="#000000" fill-opacity="1"><g transform="translate(62.897409, 34.152553)"><g><path d="M 7.808594 -8.386719 L 10.597656 -12.042969 C 11.195312 -12.808594 12.640625 -13.984375 13.46875 -14.460938 L 12.105469 -14.460938 L 7.332031 -8.222656 L 2.828125 -14.460938 L 0 -14.460938 C 0.535156 -13.984375 1.589844 -12.558594 2.085938 -11.855469 L 5.679688 -6.898438 L 5.679688 -2.273438 C 5.679688 -1.054688 5.472656 0 5.472656 0 L 7.992188 0 C 7.992188 0 7.808594 -1.054688 7.808594 -2.273438 Z M 7.808594 -8.386719 "/></g></g><g transform="translate(78.224339, 34.152553)"><g/></g><g transform="translate(83.367743, 34.152553)"><g><path d="M 2.519531 -14.460938 L 0 -14.460938 C 0 -14.460938 0.207031 -13.40625 0.207031 -12.1875 L 0.207031 -2.273438 C 0.207031 -1.054688 0 0 0 0 L 2.519531 0 C 2.519531 0 2.3125 -1.054688 2.3125 -2.273438 L 2.3125 -7.167969 C 3.882812 -7.1875 6.941406 -7.003906 8.386719 -7.003906 C 8.964844 -7.003906 9.234375 -7.023438 9.441406 -7.0625 L 9.441406 -2.273438 C 9.441406 -1.054688 9.234375 0 9.234375 0 L 11.753906 0 C 11.753906 0 11.566406 -1.054688 11.566406 -2.273438 L 11.566406 -12.1875 C 11.566406 -13.40625 11.753906 -14.460938 11.753906 -14.460938 L 9.234375 -14.460938 C 9.234375 -14.460938 9.441406 -13.40625 9.441406 -12.1875 L 9.441406 -7.292969 C 7.871094 -7.269531 4.832031 -7.457031 3.386719 -7.457031 C 2.808594 -7.457031 2.519531 -7.4375 2.3125 -7.394531 L 2.3125 -12.1875 C 2.3125 -13.40625 2.519531 -14.460938 2.519531 -14.460938 Z M 2.519531 -14.460938 "/></g></g></g><g fill="#000000" fill-opacity="1"><g transform="translate(96.938888, 34.152553)"><g><path d="M 7.230469 -14.460938 C 3.242188 -14.460938 0 -11.214844 0 -7.230469 C 0 -3.242188 3.242188 0 7.230469 0 C 11.214844 0 14.460938 -3.242188 14.460938 -7.230469 C 14.460938 -11.214844 11.214844 -14.460938 7.230469 -14.460938 Z M 11.257812 -1.570312 C 8.964844 0.0625 5.289062 -1.136719 3.058594 -4.277344 C 0.847656 -7.394531 0.910156 -11.257812 3.203125 -12.890625 C 5.496094 -14.519531 9.171875 -13.324219 11.402344 -10.183594 C 13.613281 -7.0625 13.550781 -3.203125 11.257812 -1.570312 Z M 11.257812 -1.570312 "/></g></g></g><g fill="#000000" fill-opacity="1"><g transform="translate(113.174688, 34.152553)"><g><path d="M 3.160156 -13.902344 L 7.394531 -0.351562 L 7.621094 -0.351562 L 11.835938 -13.882812 L 14.148438 -1.941406 C 14.292969 -1.175781 14.398438 -0.535156 14.292969 0 L 16.835938 0 C 16.503906 -0.847656 16.320312 -1.714844 16.152344 -2.601562 L 13.859375 -14.460938 L 11.734375 -14.460938 L 8.429688 -3.863281 L 5.121094 -14.460938 L 2.996094 -14.460938 L 0.640625 -2.273438 C 0.414062 -1.054688 0 0 0 0 L 1.363281 0 C 1.363281 0 0.847656 -1.898438 1.21875 -3.757812 Z M 3.160156 -13.902344 "/></g></g></g><g fill="#000000" fill-opacity="1"><g transform="translate(131.868581, 34.152553)"><g><path d="M 7.230469 -14.460938 C 5.453125 -14.460938 3.820312 -13.820312 2.5625 -12.765625 C 0.992188 -11.421875 0 -9.441406 0 -7.230469 C 0 -3.242188 3.222656 0 7.230469 0 C 10.761719 0 13.34375 -2.191406 14.460938 -5.410156 L 14.171875 -5.410156 C 13.488281 -3.65625 12.125 -2.4375 10.410156 -1.941406 C 7.148438 -1.011719 3.492188 -2.828125 2.105469 -5.929688 C 1.753906 -6.734375 1.507812 -7.644531 1.425781 -8.53125 C 2.167969 -6.527344 4.335938 -5.289062 6.570312 -5.535156 C 7.910156 -5.679688 9.417969 -6.175781 10.492188 -6.527344 C 11.09375 -6.714844 11.691406 -6.878906 12.082031 -6.816406 L 11.484375 -7.765625 C 10.84375 -8.800781 10.371094 -8.738281 9.234375 -8.34375 C 7.910156 -7.871094 5.785156 -7.1875 4.070312 -7.355469 C 2.746094 -7.476562 1.632812 -8.222656 1.464844 -9.605469 C 1.382812 -10.347656 1.550781 -11.300781 2.046875 -11.898438 C 2.601562 -12.558594 3.59375 -12.929688 5.183594 -12.765625 C 7.375 -12.558594 10.574219 -11.917969 12.351562 -11.917969 C 13.386719 -11.9375 13.695312 -12.144531 13.984375 -13.054688 L 14.460938 -14.460938 C 13.074219 -13.613281 9.210938 -14.460938 7.230469 -14.460938 Z M 7.230469 -14.460938 "/></g></g></g><g fill="#060606" fill-opacity="1"><g transform="translate(26.539563, 42.020494)"><g><path d="M 1.921875 -2 L 1.171875 -2 L 1.171875 0 L 0.78125 0 L 0.78125 -2 L 0.03125 -2 L 0.03125 -2.359375 L 1.921875 -2.359375 Z M 1.921875 -2 "/></g></g></g><g fill="#060606" fill-opacity="1"><g transform="translate(30.352217, 42.020494)"><g><path d="M 2.359375 0 L 1.953125 0 L 1.953125 -0.984375 L 0.703125 -0.984375 L 0.703125 0 L 0.3125 0 L 0.3125 -2.359375 L 0.703125 -2.359375 L 0.703125 -1.34375 L 1.953125 -1.34375 L 1.953125 -2.359375 L 2.359375 -2.359375 Z M 2.359375 0 "/></g></g></g><g fill="#060606" fill-opacity="1"><g transform="translate(34.880803, 42.020494)"><g><path d="M 2 -2 L 0.703125 -2 L 0.703125 -1.359375 L 1.859375 -1.359375 L 1.859375 -1.015625 L 0.703125 -1.015625 L 0.703125 -0.359375 L 2.03125 -0.359375 L 2.03125 0 L 0.3125 0 L 0.3125 -2.359375 L 2 -2.359375 Z M 2 -2 "/></g></g></g><g fill="#060606" fill-opacity="1"><g transform="translate(38.95349, 42.020494)"><g/></g></g><g fill="#060606" fill-opacity="1"><g transform="translate(41.682119, 42.020494)"><g><path d="M 1.890625 -2 L 0.703125 -2 L 0.703125 -1.328125 L 1.78125 -1.328125 L 1.78125 -0.96875 L 0.703125 -0.96875 L 0.703125 0 L 0.3125 0 L 0.3125 -2.359375 L 1.890625 -2.359375 Z M 1.890625 -2 "/></g></g></g><g fill="#060606" fill-opacity="1"><g transform="translate(45.481267, 42.020494)"><g><path d="M 2.3125 -2.359375 L 2.3125 -0.984375 C 2.3125 -0.671875 2.21875 -0.425781 2.03125 -0.25 C 1.851562 -0.0703125 1.601562 0.015625 1.28125 0.015625 C 0.96875 0.015625 0.71875 -0.0703125 0.53125 -0.25 C 0.351562 -0.425781 0.265625 -0.671875 0.265625 -0.984375 L 0.265625 -2.359375 L 0.65625 -2.359375 L 0.65625 -0.984375 C 0.65625 -0.785156 0.710938 -0.628906 0.828125 -0.515625 C 0.941406 -0.398438 1.097656 -0.34375 1.296875 -0.34375 C 1.492188 -0.34375 1.644531 -0.394531 1.75 -0.5 C 1.863281 -0.613281 1.921875 -0.773438 1.921875 -0.984375 L 1.921875 -2.359375 Z M 2.3125 -2.359375 "/></g></g></g><g fill="#060606" fill-opacity="1"><g transform="translate(49.918672, 42.020494)"><g><path d="M 1.921875 -2 L 1.171875 -2 L 1.171875 0 L 0.78125 0 L 0.78125 -2 L 0.03125 -2 L 0.03125 -2.359375 L 1.921875 -2.359375 Z M 1.921875 -2 "/></g></g></g><g fill="#060606" fill-opacity="1"><g transform="translate(53.731326, 42.020494)"><g><path d="M 2.3125 -2.359375 L 2.3125 -0.984375 C 2.3125 -0.671875 2.21875 -0.425781 2.03125 -0.25 C 1.851562 -0.0703125 1.601562 0.015625 1.28125 0.015625 C 0.96875 0.015625 0.71875 -0.0703125 0.53125 -0.25 C 0.351562 -0.425781 0.265625 -0.671875 0.265625 -0.984375 L 0.265625 -2.359375 L 0.65625 -2.359375 L 0.65625 -0.984375 C 0.65625 -0.785156 0.710938 -0.628906 0.828125 -0.515625 C 0.941406 -0.398438 1.097656 -0.34375 1.296875 -0.34375 C 1.492188 -0.34375 1.644531 -0.394531 1.75 -0.5 C 1.863281 -0.613281 1.921875 -0.773438 1.921875 -0.984375 L 1.921875 -2.359375 Z M 2.3125 -2.359375 "/></g></g></g><g fill="#060606" fill-opacity="1"><g transform="translate(58.16873, 42.020494)"><g><path d="M 1.8125 0 L 1.375 -0.71875 C 1.351562 -0.71875 1.316406 -0.71875 1.265625 -0.71875 L 0.703125 -0.71875 L 0.703125 0 L 0.3125 0 L 0.3125 -2.359375 L 1.265625 -2.359375 C 1.566406 -2.359375 1.800781 -2.285156 1.96875 -2.140625 C 2.132812 -2.003906 2.21875 -1.8125 2.21875 -1.5625 C 2.21875 -1.363281 2.175781 -1.195312 2.09375 -1.0625 C 2.007812 -0.9375 1.890625 -0.847656 1.734375 -0.796875 L 2.265625 0 Z M 0.703125 -1.0625 L 1.265625 -1.0625 C 1.648438 -1.0625 1.84375 -1.222656 1.84375 -1.546875 C 1.84375 -1.847656 1.648438 -2 1.265625 -2 L 0.703125 -2 Z M 0.703125 -1.0625 "/></g></g></g><g fill="#060606" fill-opacity="1"><g transform="translate(62.467676, 42.020494)"><g><path d="M 2 -2 L 0.703125 -2 L 0.703125 -1.359375 L 1.859375 -1.359375 L 1.859375 -1.015625 L 0.703125 -1.015625 L 0.703125 -0.359375 L 2.03125 -0.359375 L 2.03125 0 L 0.3125 0 L 0.3125 -2.359375 L 2 -2.359375 Z M 2 -2 "/></g></g></g><g fill="#060606" fill-opacity="1"><g transform="translate(66.540365, 42.020494)"><g/></g></g><g fill="#060606" fill-opacity="1"><g transform="translate(69.268995, 42.020494)"><g><path d="M 0.46875 -2.03125 C 0.71875 -2.257812 1.015625 -2.375 1.359375 -2.375 C 1.710938 -2.375 2.007812 -2.257812 2.25 -2.03125 C 2.5 -1.800781 2.625 -1.515625 2.625 -1.171875 C 2.625 -0.835938 2.5 -0.554688 2.25 -0.328125 C 2.007812 -0.0976562 1.710938 0.015625 1.359375 0.015625 C 1.015625 0.015625 0.71875 -0.0976562 0.46875 -0.328125 C 0.226562 -0.554688 0.109375 -0.835938 0.109375 -1.171875 C 0.109375 -1.515625 0.226562 -1.800781 0.46875 -2.03125 Z M 1.375 -2.015625 C 1.132812 -2.015625 0.929688 -1.929688 0.765625 -1.765625 C 0.597656 -1.609375 0.515625 -1.410156 0.515625 -1.171875 C 0.515625 -0.941406 0.597656 -0.742188 0.765625 -0.578125 C 0.929688 -0.421875 1.128906 -0.34375 1.359375 -0.34375 C 1.597656 -0.34375 1.796875 -0.421875 1.953125 -0.578125 C 2.117188 -0.742188 2.203125 -0.941406 2.203125 -1.171875 C 2.203125 -1.410156 2.117188 -1.609375 1.953125 -1.765625 C 1.796875 -1.929688 1.601562 -2.015625 1.375 -2.015625 Z M 1.375 -2.015625 "/></g></g></g><g fill="#060606" fill-opacity="1"><g transform="translate(73.861745, 42.020494)"><g><path d="M 1.890625 -2 L 0.703125 -2 L 0.703125 -1.328125 L 1.78125 -1.328125 L 1.78125 -0.96875 L 0.703125 -0.96875 L 0.703125 0 L 0.3125 0 L 0.3125 -2.359375 L 1.890625 -2.359375 Z M 1.890625 -2 "/></g></g></g><g fill="#060606" fill-opacity="1"><g transform="translate(77.660895, 42.020494)"><g/></g></g><g fill="#060606" fill-opacity="1"><g transform="translate(80.389526, 42.020494)"><g><path d="M 2.359375 0 L 1.953125 0 L 1.953125 -0.984375 L 0.703125 -0.984375 L 0.703125 0 L 0.3125 0 L 0.3125 -2.359375 L 0.703125 -2.359375 L 0.703125 -1.34375 L 1.953125 -1.34375 L 1.953125 -2.359375 L 2.359375 -2.359375 Z M 2.359375 0 "/></g></g></g><g fill="#060606" fill-opacity="1"><g transform="translate(84.918113, 42.020494)"><g><path d="M 0.46875 -2.03125 C 0.71875 -2.257812 1.015625 -2.375 1.359375 -2.375 C 1.710938 -2.375 2.007812 -2.257812 2.25 -2.03125 C 2.5 -1.800781 2.625 -1.515625 2.625 -1.171875 C 2.625 -0.835938 2.5 -0.554688 2.25 -0.328125 C 2.007812 -0.0976562 1.710938 0.015625 1.359375 0.015625 C 1.015625 0.015625 0.71875 -0.0976562 0.46875 -0.328125 C 0.226562 -0.554688 0.109375 -0.835938 0.109375 -1.171875 C 0.109375 -1.515625 0.226562 -1.800781 0.46875 -2.03125 Z M 1.375 -2.015625 C 1.132812 -2.015625 0.929688 -1.929688 0.765625 -1.765625 C 0.597656 -1.609375 0.515625 -1.410156 0.515625 -1.171875 C 0.515625 -0.941406 0.597656 -0.742188 0.765625 -0.578125 C 0.929688 -0.421875 1.128906 -0.34375 1.359375 -0.34375 C 1.597656 -0.34375 1.796875 -0.421875 1.953125 -0.578125 C 2.117188 -0.742188 2.203125 -0.941406 2.203125 -1.171875 C 2.203125 -1.410156 2.117188 -1.609375 1.953125 -1.765625 C 1.796875 -1.929688 1.601562 -2.015625 1.375 -2.015625 Z M 1.375 -2.015625 "/></g></g></g><g fill="#060606" fill-opacity="1"><g transform="translate(89.510863, 42.020494)"><g><path d="M 2.8125 0 L 2.4375 0 L 2.4375 -1.765625 L 1.6875 -0.25 L 1.4375 -0.25 L 0.6875 -1.765625 L 0.6875 0 L 0.3125 0 L 0.3125 -2.359375 L 0.78125 -2.359375 L 1.5625 -0.796875 L 2.34375 -2.359375 L 2.8125 -2.359375 Z M 2.8125 0 "/></g></g></g><g fill="#060606" fill-opacity="1"><g transform="translate(94.491974, 42.020494)"><g><path d="M 2 -2 L 0.703125 -2 L 0.703125 -1.359375 L 1.859375 -1.359375 L 1.859375 -1.015625 L 0.703125 -1.015625 L 0.703125 -0.359375 L 2.03125 -0.359375 L 2.03125 0 L 0.3125 0 L 0.3125 -2.359375 L 2 -2.359375 Z M 2 -2 "/></g></g></g><g fill="#060606" fill-opacity="1"><g transform="translate(98.564663, 42.020494)"><g/></g></g><g fill="#060606" fill-opacity="1"><g transform="translate(101.293293, 42.020494)"><g><path d="M 0.703125 -0.359375 L 1.734375 -0.359375 L 1.734375 0 L 0.3125 0 L 0.3125 -2.359375 L 0.703125 -2.359375 Z M 0.703125 -0.359375 "/></g></g></g><g fill="#060606" fill-opacity="1"><g transform="translate(104.953985, 42.020494)"><g><path d="M 0.703125 0 L 0.3125 0 L 0.3125 -2.359375 L 0.703125 -2.359375 Z M 0.703125 0 "/></g></g></g><g fill="#060606" fill-opacity="1"><g transform="translate(107.831204, 42.020494)"><g><path d="M 1.359375 0 L 0.953125 0 L 0.015625 -2.359375 L 0.4375 -2.359375 L 1.171875 -0.4375 L 1.90625 -2.359375 L 2.3125 -2.359375 Z M 1.359375 0 "/></g></g></g><g fill="#060606" fill-opacity="1"><g transform="translate(112.018712, 42.020494)"><g><path d="M 0.703125 0 L 0.3125 0 L 0.3125 -2.359375 L 0.703125 -2.359375 Z M 0.703125 0 "/></g></g></g><g fill="#060606" fill-opacity="1"><g transform="translate(114.895931, 42.020494)"><g><path d="M 2.359375 0 L 1.96875 0 L 0.703125 -1.6875 L 0.703125 0 L 0.3125 0 L 0.3125 -2.359375 L 0.703125 -2.359375 L 1.96875 -0.671875 L 1.96875 -2.359375 L 2.359375 -2.359375 Z M 2.359375 0 "/></g></g></g><g fill="#060606" fill-opacity="1"><g transform="translate(119.427893, 42.020494)"><g><path d="M 1.921875 -1.15625 L 2.28125 -1.15625 L 2.28125 -0.296875 C 2.15625 -0.203125 2.007812 -0.125 1.84375 -0.0625 C 1.675781 -0.0078125 1.515625 0.015625 1.359375 0.015625 C 1.003906 0.015625 0.707031 -0.0976562 0.46875 -0.328125 C 0.226562 -0.554688 0.109375 -0.835938 0.109375 -1.171875 C 0.109375 -1.515625 0.226562 -1.800781 0.46875 -2.03125 C 0.71875 -2.257812 1.019531 -2.375 1.375 -2.375 C 1.539062 -2.375 1.703125 -2.34375 1.859375 -2.28125 C 2.023438 -2.21875 2.164062 -2.140625 2.28125 -2.046875 L 2.0625 -1.75 C 1.863281 -1.925781 1.632812 -2.015625 1.375 -2.015625 C 1.132812 -2.015625 0.929688 -1.929688 0.765625 -1.765625 C 0.597656 -1.609375 0.515625 -1.414062 0.515625 -1.1875 C 0.515625 -0.945312 0.597656 -0.742188 0.765625 -0.578125 C 0.929688 -0.421875 1.140625 -0.34375 1.390625 -0.34375 C 1.566406 -0.34375 1.742188 -0.394531 1.921875 -0.5 Z M 1.921875 -1.15625 "/></g></g></g></svg>