<svg xmlns="http://www.w3.org/2000/svg" xmlns:xlink="http://www.w3.org/1999/xlink" width="70" zoomAndPan="magnify" viewBox="0 0 52.5 44.249999" height="59" preserveAspectRatio="xMidYMid meet" version="1.0"><defs><g/><clipPath id="9ceb08995a"><path d="M 9.332031 2.765625 L 43.167969 2.765625 L 43.167969 36.601562 L 9.332031 36.601562 Z M 9.332031 2.765625 " clip-rule="nonzero"/></clipPath></defs><g clip-path="url(#9ceb08995a)"><path fill="#255751" d="M 9.332031 2.765625 L 43.167969 2.765625 L 43.167969 36.601562 L 9.332031 36.601562 Z M 9.332031 2.765625 " fill-opacity="1" fill-rule="nonzero"/></g><g fill="#ffffff" fill-opacity="1"><g transform="translate(13.557611, 17.639332)"><g><path d="M 1.738281 0 L 6.949219 0 L 6.949219 -5.210938 L 5.792969 -5.210938 L 5.792969 -1.160156 L 1.738281 -1.160156 L 1.738281 -8.109375 L 6.949219 -8.109375 L 6.949219 -9.265625 L 1.738281 -9.265625 C 0.972656 -9.265625 0.578125 -8.882812 0.578125 -8.109375 L 0.578125 -1.160156 C 0.578125 -0.394531 0.972656 0 1.738281 0 Z M 1.738281 0 "/></g></g></g><g fill="#ffffff" fill-opacity="1"><g transform="translate(22.487111, 17.639332)"><g><path d="M 0.578125 -8.109375 L 0.578125 0 L 1.738281 0 L 1.738281 -8.109375 L 5.792969 -8.109375 L 5.792969 0 L 6.949219 0 L 6.949219 -8.109375 C 6.949219 -8.882812 6.566406 -9.265625 5.792969 -9.265625 L 1.738281 -9.265625 C 0.972656 -9.265625 0.578125 -8.882812 0.578125 -8.109375 Z M 2.894531 -2.316406 L 4.632812 -2.316406 L 4.632812 -3.476562 L 2.894531 -3.476562 Z M 2.894531 -2.316406 "/></g></g></g><g fill="#ffffff" fill-opacity="1"><g transform="translate(31.416611, 17.639332)"><g><path d="M 1.738281 0 L 5.792969 0 C 6.566406 0 6.949219 -0.394531 6.949219 -1.160156 L 6.949219 -9.265625 L 5.792969 -9.265625 L 5.792969 -1.160156 L 1.738281 -1.160156 L 1.738281 -9.265625 L 0.578125 -9.265625 L 0.578125 -1.160156 C 0.578125 -0.394531 0.972656 0 1.738281 0 Z M 1.738281 0 "/></g></g></g><g fill="#ffffff" fill-opacity="1"><g transform="translate(18.020691, 30.471319)"><g><path d="M 1.738281 -6.949219 L 0.578125 -6.949219 L 0.578125 0 L 5.792969 0 C 6.566406 0 6.949219 -0.394531 6.949219 -1.160156 L 6.949219 -8.109375 C 6.949219 -8.882812 6.566406 -9.265625 5.792969 -9.265625 L 0.578125 -9.265625 L 0.578125 -8.109375 L 5.792969 -8.109375 L 5.792969 -1.160156 L 1.738281 -1.160156 Z M 1.738281 -6.949219 "/></g></g></g><g fill="#ffffff" fill-opacity="1"><g transform="translate(26.950191, 30.471319)"><g><path d="M 1.738281 -4.054688 L 5.792969 -4.054688 L 5.792969 0 L 6.949219 0 L 6.949219 -4.054688 C 6.949219 -4.832031 6.566406 -5.210938 5.792969 -5.210938 L 1.738281 -5.210938 L 1.738281 -9.265625 L 0.578125 -9.265625 L 0.578125 -5.210938 C 0.578125 -4.449219 0.972656 -4.054688 1.738281 -4.054688 Z M 5.792969 -6.371094 L 6.949219 -6.371094 L 6.949219 -9.265625 L 5.792969 -9.265625 Z M 5.792969 -6.371094 "/></g></g></g><g fill="#000000" fill-opacity="1"><g transform="translate(8.808701, 42.865621)"><g><path d="M 0.6875 0 L 0.265625 -0.4375 L 0.265625 -2.265625 L 0.6875 -2.703125 L 1.890625 -2.703125 L 1.890625 -2.390625 L 0.859375 -2.390625 L 0.609375 -2.140625 L 0.609375 -0.5625 L 0.859375 -0.3125 L 1.890625 -0.3125 L 1.890625 0 Z M 0.6875 0 "/></g></g></g><g fill="#000000" fill-opacity="1"><g transform="translate(11.201409, 42.865621)"><g><path d="M 0.3125 0 L 0.3125 -2.703125 L 0.65625 -2.703125 L 0.65625 -0.3125 L 1.78125 -0.3125 L 1.78125 0 Z M 0.3125 0 "/></g></g></g><g fill="#000000" fill-opacity="1"><g transform="translate(13.408878, 42.865621)"><g><path d="M 0.6875 0 L 0.265625 -0.4375 L 0.265625 -2.265625 L 0.6875 -2.703125 L 1.765625 -2.703125 L 2.203125 -2.265625 L 2.203125 -0.4375 L 1.765625 0 Z M 0.859375 -0.3125 L 1.609375 -0.3125 L 1.859375 -0.5625 L 1.859375 -2.140625 L 1.609375 -2.390625 L 0.859375 -2.390625 L 0.609375 -2.140625 L 0.609375 -0.5625 Z M 0.859375 -0.3125 "/></g></g></g><g fill="#000000" fill-opacity="1"><g transform="translate(16.245397, 42.865621)"><g><path d="M 0.78125 0 L 0.78125 -2.390625 L 0.03125 -2.390625 L 0.03125 -2.703125 L 1.890625 -2.703125 L 1.890625 -2.390625 L 1.125 -2.390625 L 1.125 0 Z M 0.78125 0 "/></g></g></g><g fill="#000000" fill-opacity="1"><g transform="translate(18.533909, 42.865621)"><g><path d="M 0.3125 0 L 0.3125 -2.703125 L 0.65625 -2.703125 L 0.65625 -1.515625 L 1.78125 -1.515625 L 1.78125 -2.703125 L 2.140625 -2.703125 L 2.140625 0 L 1.78125 0 L 1.78125 -1.203125 L 0.65625 -1.203125 L 0.65625 0 Z M 0.3125 0 "/></g></g></g><g fill="#000000" fill-opacity="1"><g transform="translate(21.351133, 42.865621)"><g><path d="M 0.1875 0 L 0.1875 -0.296875 L 0.578125 -0.296875 L 0.578125 -2.40625 L 0.1875 -2.40625 L 0.1875 -2.703125 L 1.328125 -2.703125 L 1.328125 -2.40625 L 0.921875 -2.40625 L 0.921875 -0.296875 L 1.328125 -0.296875 L 1.328125 0 Z M 0.1875 0 "/></g></g></g><g fill="#000000" fill-opacity="1"><g transform="translate(23.234427, 42.865621)"><g><path d="M 0.3125 0 L 0.3125 -2.703125 L 0.921875 -2.703125 L 1.8125 -0.34375 L 1.875 -0.34375 L 1.875 -2.703125 L 2.203125 -2.703125 L 2.203125 0 L 1.59375 0 L 0.6875 -2.359375 L 0.625 -2.359375 L 0.625 0 Z M 0.3125 0 "/></g></g></g><g fill="#000000" fill-opacity="1"><g transform="translate(26.117258, 42.865621)"><g><path d="M 0.6875 0 L 0.265625 -0.4375 L 0.265625 -2.265625 L 0.6875 -2.703125 L 2.03125 -2.703125 L 2.03125 -2.390625 L 0.859375 -2.390625 L 0.609375 -2.140625 L 0.609375 -0.5625 L 0.859375 -0.3125 L 1.59375 -0.3125 L 1.84375 -0.5625 L 1.84375 -1.234375 L 1.171875 -1.234375 L 1.171875 -1.53125 L 2.1875 -1.53125 L 2.1875 -0.4375 L 1.765625 0 Z M 0.6875 0 "/></g></g></g><g fill="#000000" fill-opacity="1"><g transform="translate(28.88431, 42.865621)"><g/></g></g><g fill="#000000" fill-opacity="1"><g transform="translate(30.281343, 42.865621)"><g><path d="M 0.3125 0 L 0.3125 -2.703125 L 1.6875 -2.703125 L 2.0625 -2.328125 L 2.0625 -1.65625 L 1.84375 -1.4375 L 2.15625 -1.125 L 2.15625 -0.40625 L 1.75 0 Z M 0.65625 -1.5625 L 1.515625 -1.5625 L 1.703125 -1.75 L 1.703125 -2.203125 L 1.53125 -2.390625 L 0.65625 -2.390625 Z M 0.65625 -0.3125 L 1.578125 -0.3125 L 1.8125 -0.53125 L 1.8125 -1.015625 L 1.578125 -1.25 L 0.65625 -1.25 Z M 0.65625 -0.3125 "/></g></g></g><g fill="#000000" fill-opacity="1"><g transform="translate(33.02138, 42.865621)"><g><path d="M 0.3125 0 L 0.3125 -2.703125 L 1.640625 -2.703125 L 2.0625 -2.28125 L 2.0625 -1.390625 L 1.671875 -1.015625 L 2.125 -0.140625 L 2.125 0 L 1.8125 0 L 1.296875 -0.96875 L 0.65625 -0.96875 L 0.65625 0 Z M 0.65625 -1.28125 L 1.484375 -1.28125 L 1.703125 -1.515625 L 1.703125 -2.15625 L 1.484375 -2.390625 L 0.65625 -2.390625 Z M 0.65625 -1.28125 "/></g></g></g><g fill="#000000" fill-opacity="1"><g transform="translate(35.726686, 42.865621)"><g><path d="M 1.421875 -2.703125 L 2.1875 -0.140625 L 2.1875 0 L 1.859375 0 L 1.65625 -0.734375 L 0.625 -0.734375 L 0.421875 0 L 0.09375 0 L 0.09375 -0.140625 L 0.859375 -2.703125 Z M 0.71875 -1.046875 L 1.5625 -1.046875 L 1.171875 -2.375 L 1.109375 -2.375 Z M 0.71875 -1.046875 "/></g></g></g><g fill="#000000" fill-opacity="1"><g transform="translate(38.389541, 42.865621)"><g><path d="M 0.3125 0 L 0.3125 -2.703125 L 0.921875 -2.703125 L 1.8125 -0.34375 L 1.875 -0.34375 L 1.875 -2.703125 L 2.203125 -2.703125 L 2.203125 0 L 1.59375 0 L 0.6875 -2.359375 L 0.625 -2.359375 L 0.625 0 Z M 0.3125 0 "/></g></g></g><g fill="#000000" fill-opacity="1"><g transform="translate(41.27237, 42.865621)"><g><path d="M 0.3125 0 L 0.3125 -2.703125 L 1.71875 -2.703125 L 2.15625 -2.265625 L 2.15625 -0.4375 L 1.71875 0 Z M 0.65625 -0.3125 L 1.5625 -0.3125 L 1.8125 -0.5625 L 1.8125 -2.140625 L 1.5625 -2.390625 L 0.65625 -2.390625 Z M 0.65625 -0.3125 "/></g></g></g></svg>